<?xml version="1.0" encoding="utf-8"?>
<!-- Generator: Adobe Illustrator 16.0.0, SVG Export Plug-In . SVG Version: 6.00 Build 0)  -->
<!DOCTYPE svg PUBLIC "-//W3C//DTD SVG 1.1//EN" "http://www.w3.org/Graphics/SVG/1.1/DTD/svg11.dtd">
<svg version="1.1" id="图层_1" xmlns="http://www.w3.org/2000/svg" xmlns:xlink="http://www.w3.org/1999/xlink" x="0px" y="0px"
	 width="64px" height="64px" viewBox="0 0 64 64" enable-background="new 0 0 64 64" xml:space="preserve">
<path d="M14.938,20.935c1.214-0.938,2.961-0.709,3.911,0.521l25.572,33.431c0.944,1.232,0.728,2.992-0.492,3.933
	c-1.208,0.936-2.964,0.702-3.909-0.529L14.444,24.862C13.497,23.624,13.723,21.872,14.938,20.935z M21.644,21.635
	c0.19-1.433,2.424-13.588,15.897-11.278c13.495,2.3,22.451,4.231,23.721-5.75c0,0,1.557,7.007,1.016,11.292
	c-0.537,4.283-4.767,11.596-13.282,12.764c-7.877,1.079-11.904,6.128-11.363,13.428C37.63,42.086,22.9,23.225,21.644,21.635z"/>
<path fill="#FF4B54" d="M50.43,24.862L24.854,58.291c-0.945,1.23-2.701,1.465-3.909,0.529c-1.22-0.941-1.437-2.701-0.492-3.934
	l25.571-33.432c0.95-1.229,2.697-1.458,3.911-0.521C51.15,21.872,51.377,23.624,50.43,24.862z M27.242,42.092
	c0.541-7.299-3.486-12.35-11.363-13.428C7.364,27.496,3.134,20.183,2.597,15.899C2.056,11.614,3.613,4.607,3.613,4.607
	c1.27,9.98,10.226,8.05,23.72,5.749c13.473-2.31,15.706,9.846,15.896,11.278C41.974,23.225,27.244,42.086,27.242,42.092z"/>
<path fill="#FFFFFF" d="M32,28.943"/>
<path fill="#FFFFFF" d="M32,28.943"/>
</svg>
