<?xml version="1.0" encoding="utf-8"?>
<!-- Generator: Adobe Illustrator 16.0.0, SVG Export Plug-In . SVG Version: 6.00 Build 0)  -->
<!DOCTYPE svg PUBLIC "-//W3C//DTD SVG 1.1//EN" "http://www.w3.org/Graphics/SVG/1.1/DTD/svg11.dtd">
<svg version="1.1" id="图层_1" xmlns="http://www.w3.org/2000/svg" xmlns:xlink="http://www.w3.org/1999/xlink" x="0px" y="0px"
	 width="64px" height="64px" viewBox="0 0 64 64" enable-background="new 0 0 64 64" xml:space="preserve">
<path d="M10.274,9.571c1.481-0.4,3.006,0.481,3.413,1.981L24.48,52.234c0.4,1.5-0.475,3.043-1.963,3.443
	c-1.475,0.4-3.006-0.488-3.406-1.988l-10.8-40.681C7.912,11.502,8.793,9.971,10.274,9.571z M16.199,12.79
	c0.725-1.25,7.45-11.619,19.006-4.319c11.582,7.3,19.113,12.519,24.113,3.788c0,0-1.25,7.068-3.395,10.818
	c-2.137,3.75-8.85,8.881-17.162,6.694c-7.688-2.025-13.344,1.094-15.644,8.043C23.118,37.809,16.749,14.74,16.199,12.79z"/>
<path fill="#00FFD5" d="M24.671,22.091c1.167-0.316,2.369,0.379,2.689,1.561l8.505,32.058c0.315,1.182-0.374,2.398-1.547,2.714
	c-1.162,0.315-2.369-0.386-2.684-1.567L23.124,24.8C22.809,23.612,23.503,22.406,24.671,22.091z M29.34,24.627
	c0.571-0.985,5.87-9.156,14.977-3.404c9.127,5.753,15.062,9.865,19.002,2.985c0,0-0.984,5.57-2.675,8.525
	c-1.684,2.954-6.975,6.998-13.524,5.275c-6.058-1.597-10.516,0.861-12.328,6.338C34.791,44.343,29.773,26.164,29.34,24.627z"/>
<path fill="#FF7A45" d="M7.066,25.791c1.112-0.301,2.258,0.361,2.563,1.488l8.109,30.563c0.301,1.127-0.357,2.287-1.475,2.588
	c-1.108,0.3-2.258-0.368-2.558-1.495L5.592,28.373C5.291,27.24,5.953,26.09,7.066,25.791z M11.518,28.208
	c0.544-0.938,5.596-8.729,14.278-3.245c8.701,5.485,14.36,9.405,18.116,2.846c0,0-0.938,5.311-2.55,8.128
	c-1.604,2.815-6.648,6.671-12.894,5.029c-5.775-1.522-10.025,0.82-11.753,6.042C16.714,47.004,11.931,29.673,11.518,28.208z"/>
</svg>
