<?xml version="1.0" standalone="no"?><!DOCTYPE svg PUBLIC "-//W3C//DTD SVG 1.1//EN" "http://www.w3.org/Graphics/SVG/1.1/DTD/svg11.dtd"><svg t="1541903708292" class="icon" style="" viewBox="0 0 1024 1024" version="1.1" xmlns="http://www.w3.org/2000/svg" p-id="3609" xmlns:xlink="http://www.w3.org/1999/xlink" width="64" height="64"><defs><style type="text/css"></style></defs><path fill="#FF4B54"  d="M132.4 171.8c23.7-6.4 48.1 7.7 54.6 31.7l172.7 650.9c6.4 24-7.6 48.7-31.4 55.1-23.6 6.4-48.1-7.8-54.5-31.8L101 226.8c-6.4-24.1 7.7-48.6 31.4-55zM227.2 223.3c11.6-20 119.2-185.9 304.1-69.1C716.6 271 837.1 354.5 917.1 214.8c0 0-20 113.1-54.3 173.1-34.2 60-141.6 142.1-274.6 107.1-123-32.4-213.5 17.5-250.3 128.7 0-0.1-101.9-369.2-110.7-400.4z" p-id="3610"></path></svg>