<?xml version="1.0" standalone="no"?><!DOCTYPE svg PUBLIC "-//W3C//DTD SVG 1.1//EN" "http://www.w3.org/Graphics/SVG/1.1/DTD/svg11.dtd"><svg t="1541929930760" class="icon" style="" viewBox="0 0 1024 1024" version="1.1" xmlns="http://www.w3.org/2000/svg" p-id="936" xmlns:xlink="http://www.w3.org/1999/xlink" width="200" height="200"><defs><style type="text/css"></style></defs><path d="M844.8 896H179.2c-98.816 0-179.2-80.384-179.2-179.2V409.6c0-98.816 80.384-179.2 179.2-179.2h70.656c9.728 0 18.432-5.632 23.04-14.336l23.04-45.568c13.312-26.112 39.424-42.496 68.608-42.496h294.912c29.184 0 55.808 16.384 68.608 42.496l23.04 45.568c4.608 8.704 13.312 14.336 23.04 14.336H844.8c98.816 0 179.2 80.384 179.2 179.2v307.2c0 98.816-80.384 179.2-179.2 179.2zM179.2 281.6c-70.656 0-128 57.344-128 128v307.2c0 70.656 57.344 128 128 128h665.6c70.656 0 128-57.344 128-128V409.6c0-70.656-57.344-128-128-128h-70.656c-29.184 0-55.808-16.384-68.608-42.496l-23.04-45.568c-4.608-8.704-13.312-14.336-23.04-14.336H364.544c-9.728 0-18.432 5.632-23.04 14.336l-23.04 45.568c-13.312 26.112-39.424 42.496-68.608 42.496H179.2z" fill="#ffffff" p-id="937"></path><path d="M460.8 724.992c0-9.728-5.632-18.944-14.336-23.04C394.24 677.376 358.4 624.64 358.4 563.2s35.84-114.176 88.064-138.752c8.704-4.096 14.336-13.312 14.336-23.04 0-18.944-19.456-31.232-36.352-23.04C355.328 411.136 307.2 481.792 307.2 563.2c0 81.408 48.128 152.064 117.248 184.832 16.896 8.192 36.352-4.096 36.352-23.04zM563.2 401.408c0 9.728 5.632 18.944 14.336 23.04C629.76 449.024 665.6 501.76 665.6 563.2s-35.84 114.176-88.064 138.752c-8.704 4.096-14.336 13.312-14.336 23.04 0 18.944 19.456 31.232 36.352 23.04 69.12-32.768 117.248-103.424 117.248-184.832 0-81.408-48.128-152.064-117.248-184.832-16.896-8.192-36.352 4.096-36.352 23.04z" fill="#ffffff" p-id="938"></path><path d="M361.984 346.112c2.56 6.144 7.168 11.776 13.312 14.336l52.224 24.064c12.8 6.144 18.432 20.992 12.288 33.792L415.232 471.04c-3.072 6.144-3.072 13.312-1.024 19.456 7.68 21.504 37.376 22.528 47.104 2.048l46.08-98.304c6.144-12.8 0.512-28.16-12.288-33.792l-98.304-46.08c-20.48-9.728-42.496 10.24-34.816 31.744zM662.016 780.288c-2.56-6.144-7.168-11.776-13.312-14.336l-52.224-24.064c-12.8-6.144-18.432-20.992-12.288-33.792l24.064-52.224c3.072-6.144 3.072-13.312 1.024-19.456-7.68-21.504-37.376-22.528-47.104-2.048l-46.08 98.304c-6.144 12.8-0.512 28.16 12.288 33.792l98.304 46.08c20.992 9.216 43.008-10.752 35.328-32.256z" fill="#ffffff" p-id="939"></path></svg>