<?xml version="1.0" standalone="no"?><!DOCTYPE svg PUBLIC "-//W3C//DTD SVG 1.1//EN" "http://www.w3.org/Graphics/SVG/1.1/DTD/svg11.dtd"><svg t="1541928409179" class="icon" style="" viewBox="0 0 1024 1024" version="1.1" xmlns="http://www.w3.org/2000/svg" p-id="1030" xmlns:xlink="http://www.w3.org/1999/xlink" width="200" height="200"><defs><style type="text/css"></style></defs><path d="M174.2 286.9c15.3 0 27.8 12.4 27.8 27.8 0 15.3 12.4 27.8 27.8 27.8s27.8-12.4 27.8-27.8c0-15.3 12.4-27.8 27.8-27.8s27.8-12.4 27.8-27.8c0-15.3-12.4-27.8-27.8-27.8s-27.8-12.4-27.8-27.8-12.4-27.8-27.8-27.8-27.8 12.5-27.8 27.8-12.4 27.8-27.8 27.8-27.8 12.4-27.8 27.8c0.1 15.3 12.5 27.8 27.8 27.8z m233 383.7l0.2 0.2 0.1 0.1c13.5 14.6 32.7 23.9 54.2 23.9 21.4 0 40.6-9.3 54.2-23.9l0.1-0.1 0.2-0.2c3.2-3.3 5.3-7.8 5.3-12.9 0-10.2-8.3-18.6-18.6-18.6-5 0-9.5 2-12.9 5.3l-0.2 0.2c-6.8 7.9-16.7 13.1-28 13.1s-21.2-5.1-28-13.1l-0.2-0.2c-3.3-3.2-7.8-5.3-12.9-5.3-10.2 0-18.6 8.3-18.6 18.6-0.2 4.9 1.8 9.4 5.1 12.9z m351.1-87.1V453.7c0-163.9-132.8-296.6-296.6-296.6-55.5 0-107.5 15.2-151.8 41.8 23.8 9.7 40.6 32.9 40.6 60.2 0 32.9-24.5 60.1-56.2 64.2-4.3 31.7-31.4 56.2-64.2 56.2-19.5 0-37-8.6-48.8-22.2-10.4 30.2-16.1 62.6-16.1 96.3v129.8c0 53-22.4 100.4-58 134.2C177 792.4 309.5 843 461.6 843s284.5-50.6 354.6-125.4c-35.5-33.7-57.9-81.2-57.9-134.1z m-111.4-7.1c0 106.3-83 192.4-185.4 192.4s-185.4-86.1-185.4-192.4v-49c6.1 0.2 12.3 0.4 18.6 0.4 133.7 0 256.3-47.2 352.2-125.9v174.5zM888 564.9c-10.2 0-18.6-8.3-18.6-18.6 0-10.2-8.3-18.6-18.6-18.6-10.2 0-18.6 8.3-18.6 18.6 0 10.2-8.3 18.6-18.6 18.6-10.2 0-18.6 8.3-18.6 18.6 0 10.2 8.3 18.6 18.6 18.6 10.2 0 18.6 8.3 18.6 18.6 0 10.2 8.3 18.6 18.6 18.6 10.2 0 18.6-8.3 18.6-18.6 0-10.2 8.3-18.6 18.6-18.6 10.2 0 18.6-8.3 18.6-18.6-0.1-10.3-8.4-18.6-18.6-18.6z" fill="#ffffff" p-id="1031"></path></svg>